          <svg
            width="50"
            height="40"
            viewBox="0 0 50 40"
            fill="none"
            xmlns="http://www.w3.org/2000/svg"
          >
            <path
              fill-rule="evenodd"
              clip-rule="evenodd"
              d="M42.6439 28.4195L42.0394 26.9795L41.1177 24.9338L41.0786 24.8947C38.2777 18.7909 35.3285 12.7562 32.2338 6.79594L32.1097 6.56608L31.1558 4.6468C30.7613 3.86099 30.2782 3.12295 29.7157 2.44709C29.1038 1.67591 28.3238 1.05462 27.4353 0.630592C26.5469 0.206563 25.5733 -0.00901528 24.5888 0.000288852C23.6111 0.00352177 22.6458 0.220014 21.7603 0.634668C20.8748 1.04932 20.0905 1.65215 19.4619 2.40112C18.9131 3.08688 18.4309 3.82346 18.0219 4.60083L16.9381 6.72238C13.8408 12.7331 10.8504 18.8127 8.08644 24.8211L8.04736 24.8981C7.81751 25.5567 7.48997 26.2313 7.16472 26.9507C6.96322 27.3897 6.76171 27.8698 6.5602 28.3908C6.04927 29.7703 5.88432 31.254 6.07981 32.712C6.29531 34.1762 6.88853 35.5591 7.80103 36.7243C8.71354 37.8895 9.91384 38.7969 11.2837 39.3571C12.3109 39.7889 13.4151 40.0075 14.5293 39.9996C14.8764 39.9937 15.2229 39.968 15.5671 39.9226C16.9799 39.7424 18.3418 39.2788 19.5711 38.5595C21.4383 37.4459 23.1143 36.0393 24.5348 34.3934C25.9643 36.0302 27.6387 37.4356 29.4985 38.5595C30.7278 39.279 32.0897 39.7426 33.5026 39.9226C33.8468 39.968 34.1933 39.9937 34.5404 39.9996C35.6549 40.0112 36.7599 39.7925 37.7859 39.3571C39.1558 38.7969 40.3561 37.8895 41.2686 36.7243C42.1811 35.5591 42.7743 34.1762 42.9898 32.712C43.2848 31.2794 43.1583 29.792 42.6255 28.4298L42.6439 28.4195ZM24.5911 30.5031C22.4305 27.7771 21.0284 25.2211 20.548 23.0524C20.3518 22.2544 20.3097 21.4263 20.4239 20.6125C20.5031 20.0097 20.7232 19.4341 21.0663 18.9323C21.4676 18.3755 21.9977 17.9241 22.6113 17.6167C23.2249 17.3093 23.9038 17.155 24.59 17.167C25.2777 17.1405 25.9611 17.2877 26.5769 17.5951C27.1928 17.9024 27.7213 18.3599 28.1137 18.9254C28.4567 19.4272 28.6768 20.0028 28.7561 20.6056C28.8709 21.4194 28.8288 22.2476 28.632 23.0455C28.1516 25.1671 26.7506 27.692 24.5888 30.4962L24.5911 30.5031ZM40.5683 32.3845C40.4177 33.4096 40.0019 34.3776 39.3621 35.1926C38.7223 36.0076 37.8806 36.6413 36.9205 37.031C35.963 37.436 34.9174 37.588 33.8842 37.4723C32.8092 37.3393 31.7731 36.986 30.8409 36.4345C29.1225 35.397 27.5823 34.0897 26.2794 32.5626C28.9204 29.3171 30.5237 26.3566 31.127 23.7109C31.3876 22.5948 31.4556 21.4424 31.3282 20.3033C31.1794 19.3239 30.8087 18.3915 30.2444 17.5773C29.6098 16.6716 28.7623 15.9359 27.7765 15.4349C26.7907 14.9338 25.6968 14.6829 24.5911 14.7041C23.4912 14.69 22.404 14.941 21.4214 15.4356C20.4388 15.9303 19.5897 16.6542 18.9459 17.5462C18.3816 18.3604 18.0109 19.2929 17.8621 20.2723C17.6929 21.4099 17.7614 22.5702 18.0633 23.6799C18.6678 26.3209 20.3089 29.3251 22.9109 32.5707C21.6172 34.1069 20.0754 35.4156 18.3494 36.4426C17.4172 37.006 16.3782 37.37 15.2981 37.5114C14.2661 37.626 13.2217 37.4879 12.2548 37.1091C11.2948 36.7195 10.4531 36.0858 9.81329 35.2708C9.17346 34.4558 8.75766 33.4878 8.60706 32.4626C8.48046 31.4159 8.60536 30.3541 8.97138 29.3653C9.0955 28.9631 9.28858 28.5907 9.48855 28.0874C9.76782 27.4438 10.0931 26.7634 10.4103 26.0819L10.4493 26.0049C13.2145 20.0287 16.1727 13.9548 19.2643 8.02221L19.3792 7.73489L20.34 5.89146C20.6517 5.25601 21.0392 4.66059 21.4938 4.11813C21.8886 3.65426 22.3795 3.28169 22.9324 3.02619C23.4853 2.77069 24.0872 2.63837 24.6963 2.63837C25.3054 2.63837 25.9073 2.77069 26.4602 3.02619C27.0131 3.28169 27.504 3.65426 27.8987 4.11813C28.3306 4.65926 28.6971 5.24947 28.9906 5.87652L29.9513 7.71995L30.0663 7.94981C33.1095 13.9214 36.0839 19.9999 38.841 25.9704V26.0095C39.1582 26.6531 39.4455 27.3725 39.7627 28.015C39.9638 28.4953 40.1649 28.8976 40.2799 29.2929C40.6123 30.2896 40.708 31.3501 40.5591 32.3902L40.5683 32.3845Z"
              fill="#FF5A5F"
            />
          </svg>