<svg width="24" height="24" viewBox="0 0 24 24" fill="none" xmlns="http://www.w3.org/2000/svg">
<path fill-rule="evenodd" clip-rule="evenodd" d="M3.78363 11.25H7.26998C7.4204 8.44512 8.39621 6.30361 9.37596 4.83397C9.58142 4.52579 9.78707 4.24706 9.9854 3.99774C6.6374 4.83794 4.10136 7.72414 3.78363 11.25ZM12 3.99961C11.9696 4.02906 11.938 4.06014 11.9053 4.09283C11.5593 4.43885 11.0923 4.96357 10.624 5.66603C9.77404 6.94103 8.92017 8.79961 8.77243 11.25H15.2276C15.0798 8.79961 14.226 6.94103 13.376 5.66603C12.9077 4.96357 12.4407 4.43885 12.0947 4.09283C12.062 4.06014 12.0304 4.02906 12 3.99961ZM15.2276 12.75H8.77243C8.92017 15.2004 9.77404 17.059 10.624 18.334C11.0923 19.0364 11.5593 19.5611 11.9053 19.9072C11.938 19.9399 11.9696 19.9709 12 20.0004C12.0304 19.9709 12.062 19.9399 12.0947 19.9072C12.4407 19.5611 12.9077 19.0364 13.376 18.334C14.226 17.059 15.0798 15.2004 15.2276 12.75ZM9.98541 20.0023C9.78708 19.7529 9.58142 19.4742 9.37596 19.166C8.39621 17.6964 7.4204 15.5549 7.26998 12.75H3.78363C4.10136 16.2759 6.6374 19.1621 9.98541 20.0023ZM14.0146 20.0023C14.2129 19.7529 14.4186 19.4742 14.624 19.166C15.6038 17.6964 16.5796 15.5549 16.73 12.75H20.2164C19.8986 16.2759 17.3626 19.1621 14.0146 20.0023ZM20.2164 11.25H16.73C16.5796 8.44512 15.6038 6.30361 14.624 4.83397C14.4186 4.52579 14.2129 4.24706 14.0146 3.99774C17.3626 4.83794 19.8986 7.72414 20.2164 11.25ZM2.25 12C2.25 6.61522 6.61522 2.25 12 2.25C17.3848 2.25 21.75 6.61522 21.75 12C21.75 17.3848 17.3848 21.75 12 21.75C6.61522 21.75 2.25 17.3848 2.25 12Z" fill="#333333"/>
</svg>
