<svg width="160" height="32" viewBox="0 0 160 32" fill="none" xmlns="http://www.w3.org/2000/svg">
<path d="M0 10C0 4.47715 4.47715 0 10 0H150C155.523 0 160 4.47715 160 10V22C160 27.5228 155.523 32 150 32H10C4.47715 32 0 27.5228 0 22V10Z" fill="#CCCCCC"/>
<path d="M45.8168 12.4972H42.1678C41.9546 11.095 40.9296 10.2504 39.2404 10.2504C37.5512 10.2504 36.6738 10.9228 36.6738 11.8904C36.6738 13.0958 37.9038 13.5304 40.987 14.1618C44.6278 14.9326 45.907 16.7694 45.907 19.1884C45.907 22.2716 43.0534 24.1084 39.5274 24.1084C35.6242 24.1084 32.7706 21.9518 32.623 18.5078H36.2474C36.436 20.0494 37.7562 21.0826 39.7734 21.0826C41.2084 21.0826 42.2744 20.3528 42.2744 19.3032C42.2744 18.0158 41.2084 17.4992 38.3958 16.9662C34.9682 16.3184 33.1068 14.8752 33.1068 11.8494C33.1068 8.82361 35.9358 7.20001 39.5028 7.20001C43.0698 7.20001 45.6364 9.43862 45.8168 12.4972Z" fill="white"/>
<path d="M61.036 10.8162H55.8946V23.7558H52.3686V10.8162H47.2272V7.63458H61.036V10.8162Z" fill="white"/>
<path d="M70.4414 7.2246C68.7705 7.23755 67.1409 7.74486 65.7579 8.68256C64.375 9.62026 63.3005 10.9464 62.6701 12.4938C62.0396 14.0412 61.8814 15.7406 62.2153 17.3778C62.5492 19.015 63.3603 20.5167 64.5463 21.6936C65.7324 22.8706 67.2403 23.67 68.88 23.9913C70.5198 24.3125 72.2179 24.1411 73.7604 23.4988C75.3029 22.8564 76.6207 21.7717 77.5477 20.3816C78.4746 18.9914 78.9693 17.3579 78.9694 15.687C78.9991 14.562 78.7984 13.4429 78.3795 12.3984C77.9606 11.3539 77.3324 10.4061 76.5336 9.61345C75.7348 8.82078 74.7822 8.19992 73.7345 7.7891C72.6868 7.37828 71.5661 7.18617 70.4414 7.2246ZM65.4312 15.687C65.4276 14.9179 65.5811 14.1561 65.8822 13.4484L72.762 20.3364C72.0448 20.7078 71.249 20.9018 70.4414 20.9022C69.7621 20.9159 69.0874 20.7887 68.4597 20.5288C67.832 20.2688 67.2649 19.8817 66.7943 19.3917C66.3236 18.9018 65.9595 18.3197 65.7249 17.6821C65.4903 17.0444 65.3903 16.3652 65.4312 15.687ZM75.0498 17.7862L68.2192 10.9474C68.9116 10.6111 69.6716 10.4372 70.4414 10.439C71.1207 10.4264 71.7953 10.5546 72.4226 10.8156C73.0499 11.0765 73.6163 11.4646 74.0863 11.9553C74.5562 12.446 74.9194 13.0288 75.1529 13.6668C75.3865 14.3048 75.4854 14.9843 75.4434 15.6624C75.4478 16.3889 75.3142 17.1096 75.0498 17.7862Z" fill="#999999"/>
<path d="M81.4457 7.63458H87.5219C91.6219 7.63458 94.0409 9.97158 94.0409 13.5304C94.0409 17.0892 91.6301 19.459 87.5219 19.459H84.9799V23.7558H81.4457V7.63458ZM87.3661 16.2774C89.3259 16.2774 90.5067 15.3262 90.5067 13.5304C90.5067 11.7346 89.3259 10.8162 87.3661 10.8162H84.9799V16.2774H87.3661Z" fill="white"/>
<path d="M117.116 7.63458L112.557 23.7558H108.99L106.152 13.6862L103.34 23.7558H99.7728L95.2136 7.63458H98.9938L101.7 18.1798L104.414 7.63458H108.088L110.777 18.1388L113.516 7.63458H117.116Z" fill="white"/>
<path d="M126.726 20.6316H120.601L119.494 23.7558H115.845L121.97 7.63458H125.644L131.769 23.7558H127.833L126.726 20.6316ZM125.644 17.5074L123.659 11.8904L121.683 17.5074H125.644Z" fill="white"/>
<path d="M143.151 23.7558L140.084 18.6718H137.271V23.7558H133.745V7.63458H140.109C144.118 7.63458 146.472 9.81579 146.472 13.1532C146.522 14.1511 146.273 15.1412 145.757 15.9971C145.242 16.853 144.483 17.5358 143.577 17.9584L147.243 23.7558H143.151ZM137.271 15.4902H139.953C141.814 15.4902 142.938 14.6702 142.938 13.1532C142.938 11.6362 141.814 10.8162 139.953 10.8162H137.271V15.4902Z" fill="white"/>
<path d="M16.0836 15.0592C15.9548 15.0592 15.8272 15.0337 15.7083 14.9842C15.5894 14.9346 15.4815 14.862 15.3907 14.7705C15.3 14.679 15.2283 14.5705 15.1798 14.4512C15.1312 14.3318 15.1068 14.2041 15.1078 14.0752V9.27823C15.1078 9.01943 15.2107 8.77123 15.3936 8.58823C15.5766 8.40524 15.8248 8.30243 16.0836 8.30243C16.3424 8.30243 16.5906 8.40524 16.7736 8.58823C16.9566 8.77123 17.0594 9.01943 17.0594 9.27823V14.0752C17.0605 14.2041 17.0361 14.3318 16.9875 14.4512C16.939 14.5705 16.8673 14.679 16.7766 14.7705C16.6858 14.862 16.5779 14.9346 16.459 14.9842C16.34 15.0337 16.2125 15.0592 16.0836 15.0592Z" fill="white"/>
<path d="M22.2829 15.0592C22.154 15.0592 22.0265 15.0337 21.9075 14.9842C21.7886 14.9346 21.6807 14.862 21.59 14.7705C21.4992 14.679 21.4275 14.5705 21.379 14.4512C21.3304 14.3318 21.306 14.2041 21.3071 14.0752V9.27823C21.3071 9.01943 21.4099 8.77123 21.5929 8.58823C21.7759 8.40524 22.0241 8.30243 22.2829 8.30243C22.5417 8.30243 22.7899 8.40524 22.9729 8.58823C23.1558 8.77123 23.2587 9.01943 23.2587 9.27823V14.0752C23.2597 14.2041 23.2353 14.3318 23.1867 14.4512C23.1382 14.5705 23.0665 14.679 22.9758 14.7705C22.885 14.862 22.7771 14.9346 22.6582 14.9842C22.5393 15.0337 22.4117 15.0592 22.2829 15.0592Z" fill="white"/>
<path d="M19.1832 15.0592C19.0544 15.0592 18.9268 15.0337 18.8079 14.9842C18.689 14.9346 18.581 14.862 18.4903 14.7705C18.3996 14.679 18.3279 14.5705 18.2793 14.4512C18.2308 14.3318 18.2063 14.2041 18.2074 14.0752V7.37583C18.2074 7.11703 18.3102 6.86883 18.4932 6.68583C18.6762 6.50283 18.9244 6.40002 19.1832 6.40002C19.442 6.40002 19.6902 6.50283 19.8732 6.68583C20.0562 6.86883 20.159 7.11703 20.159 7.37583V14.0424C20.1645 14.174 20.1434 14.3053 20.0968 14.4285C20.0503 14.5516 19.9793 14.6641 19.8881 14.7591C19.7969 14.8541 19.6875 14.9297 19.5664 14.9812C19.4452 15.0328 19.3149 15.0593 19.1832 15.0592Z" fill="white"/>
<path d="M19.1504 25.1943C17.5848 25.1907 16.0625 24.6797 14.8118 23.738C13.5611 22.7963 12.6493 21.4746 12.2132 19.9709C12.1768 19.8476 12.1651 19.7184 12.1788 19.5905C12.1925 19.4627 12.2313 19.3389 12.293 19.2261C12.3547 19.1133 12.4381 19.0138 12.5384 18.9334C12.6387 18.853 12.7539 18.7931 12.8774 18.7573C13.1275 18.6864 13.3955 18.7173 13.6228 18.8432C13.8502 18.9692 14.0185 19.1801 14.091 19.4297C14.4357 20.6539 15.2125 21.7116 16.2775 22.4067C17.3425 23.1019 18.6234 23.3873 19.8828 23.2101C21.1421 23.0329 22.2946 22.4051 23.1264 21.4431C23.9582 20.4811 24.4131 19.2501 24.4066 17.9783V11.8037C24.4066 11.5449 24.5094 11.2967 24.6924 11.1137C24.8754 10.9307 25.1236 10.8279 25.3824 10.8279C25.6412 10.8279 25.8894 10.9307 26.0724 11.1137C26.2554 11.2967 26.3582 11.5449 26.3582 11.8037V17.9783C26.3582 19.8907 25.599 21.7249 24.2476 23.0779C22.8961 24.4309 21.0628 25.1922 19.1504 25.1943Z" fill="white"/>
<path d="M12.984 17.5274C12.7244 17.5274 12.4754 17.4249 12.2911 17.2421C12.1068 17.0593 12.0022 16.8112 12 16.5516V14.9116C12.0224 14.6672 12.1353 14.44 12.3166 14.2745C12.4979 14.1091 12.7345 14.0173 12.9799 14.0173C13.2253 14.0173 13.4619 14.1091 13.6432 14.2745C13.8245 14.44 13.9374 14.6672 13.9598 14.9116V16.5516C13.9598 16.8104 13.857 17.0586 13.674 17.2416C13.491 17.4246 13.2428 17.5274 12.984 17.5274Z" fill="#999999"/>
</svg>
