<svg width="210" height="42" viewBox="0 0 210 42" fill="none" xmlns="http://www.w3.org/2000/svg">
<path d="M0 10C0 4.47715 4.47715 0 10 0H200C205.523 0 210 4.47715 210 10V32C210 37.5228 205.523 42 200 42H10C4.47715 42 0 37.5228 0 32V10Z" fill="#015BBB"/>
<path d="M60.1346 16.4026H55.3452C55.0654 14.5622 53.7201 13.4537 51.503 13.4537C49.286 13.4537 48.1344 14.3362 48.1344 15.6062C48.1344 17.1883 49.7488 17.7587 53.7955 18.5874C58.574 19.5991 60.253 22.0099 60.253 25.1848C60.253 29.2315 56.5076 31.6423 51.8797 31.6423C46.7568 31.6423 43.0114 28.8118 42.8177 24.2915H47.5747C47.8222 26.3149 49.555 27.6709 52.2026 27.6709C54.086 27.6709 55.4852 26.7131 55.4852 25.3355C55.4852 23.6458 54.086 22.9677 50.3945 22.2682C45.8958 21.4179 43.4527 19.5237 43.4527 15.5523C43.4527 11.581 47.1657 9.45001 51.8474 9.45001C56.5291 9.45001 59.8978 12.3882 60.1346 16.4026Z" fill="white"/>
<path d="M80.1097 14.1963H73.3616V31.1795H68.7337V14.1963H61.9857V10.0204H80.1097V14.1963Z" fill="white"/>
<path d="M92.4543 9.48236C90.2614 9.49936 88.1225 10.1652 86.3073 11.3959C84.4921 12.6267 83.082 14.3672 82.2545 16.3982C81.427 18.4291 81.2193 20.6596 81.6576 22.8084C82.0958 24.9572 83.1604 26.9282 84.7171 28.473C86.2738 30.0177 88.2529 31.067 90.4051 31.4886C92.5572 31.9103 94.786 31.6853 96.8105 30.8422C98.835 29.9991 100.565 28.5755 101.781 26.7509C102.998 24.9263 103.647 22.7823 103.647 20.5893C103.686 19.1127 103.423 17.6438 102.873 16.2729C102.323 14.902 101.499 13.6581 100.45 12.6177C99.4019 11.5773 98.1516 10.7625 96.7765 10.2233C95.4014 9.68406 93.9305 9.43192 92.4543 9.48236ZM85.8785 20.5893C85.8737 19.5798 86.0752 18.58 86.4704 17.6511L95.5001 26.6916C94.5588 27.1791 93.5144 27.4337 92.4543 27.4342C91.5628 27.4522 90.6772 27.2853 89.8534 26.9441C89.0295 26.6029 88.2853 26.0948 87.6675 25.4517C87.0497 24.8087 86.5718 24.0446 86.2639 23.2078C85.956 22.3709 85.8248 21.4794 85.8785 20.5893ZM98.5029 23.3445L89.5377 14.3685C90.4465 13.9271 91.444 13.6989 92.4543 13.7013C93.3459 13.6847 94.2313 13.853 95.0546 14.1955C95.878 14.538 96.6215 15.0474 97.2382 15.6914C97.855 16.3355 98.3317 17.1003 98.6382 17.9377C98.9448 18.7751 99.0746 19.6669 99.0195 20.557C99.0252 21.5105 98.8499 22.4564 98.5029 23.3445Z" fill="#FED501"/>
<path d="M106.898 10.0204H114.873C120.254 10.0204 123.429 13.0877 123.429 17.7587C123.429 22.4296 120.265 25.5399 114.873 25.5399H111.536V31.1795H106.898V10.0204ZM114.668 21.3641C117.24 21.3641 118.79 20.1156 118.79 17.7587C118.79 15.4017 117.24 14.1963 114.668 14.1963H111.536V21.3641H114.668Z" fill="white"/>
<path d="M153.714 10.0204L147.731 31.1795H143.049L139.325 17.9631L135.633 31.1795H130.952L124.968 10.0204H129.929L133.481 23.861L137.043 10.0204H141.865L145.395 23.8072L148.99 10.0204H153.714Z" fill="white"/>
<path d="M166.328 27.079H158.289L156.836 31.1795H152.046L160.086 10.0204H164.908L172.947 31.1795H167.781L166.328 27.079ZM164.908 22.9785L162.303 15.6062L159.709 22.9785H164.908Z" fill="white"/>
<path d="M187.885 31.1795L183.86 24.5067H180.169V31.1795H175.541V10.0204H183.892C189.155 10.0204 192.244 12.8833 192.244 17.2636C192.309 18.5734 191.983 19.8729 191.306 20.9963C190.63 22.1196 189.633 23.0158 188.445 23.5704L193.256 31.1795H187.885ZM180.169 20.3309H183.688C186.131 20.3309 187.606 19.2547 187.606 17.2636C187.606 15.2725 186.131 14.1963 183.688 14.1963H180.169V20.3309Z" fill="white"/>
<path d="M21.1098 19.7652C20.9407 19.7652 20.7732 19.7317 20.6171 19.6667C20.4611 19.6016 20.3194 19.5063 20.2003 19.3863C20.0812 19.2662 19.9871 19.1237 19.9234 18.9671C19.8597 18.8105 19.8276 18.6428 19.829 18.4737V12.1776C19.829 11.8379 19.964 11.5122 20.2041 11.272C20.4443 11.0318 20.7701 10.8969 21.1098 10.8969C21.4494 10.8969 21.7752 11.0318 22.0154 11.272C22.2556 11.5122 22.3905 11.8379 22.3905 12.1776V18.4737C22.3919 18.6428 22.3598 18.8105 22.2961 18.9671C22.2324 19.1237 22.1383 19.2662 22.0192 19.3863C21.9001 19.5063 21.7585 19.6016 21.6024 19.6667C21.4463 19.7317 21.2789 19.7652 21.1098 19.7652Z" fill="white"/>
<path d="M29.2462 19.7652C29.0771 19.7652 28.9097 19.7317 28.7536 19.6667C28.5975 19.6016 28.4558 19.5063 28.3367 19.3863C28.2177 19.2662 28.1235 19.1237 28.0598 18.9671C27.9961 18.8105 27.964 18.6428 27.9654 18.4737V12.1776C27.9654 11.8379 28.1004 11.5122 28.3406 11.272C28.5807 11.0318 28.9065 10.8969 29.2462 10.8969C29.5858 10.8969 29.9116 11.0318 30.1518 11.272C30.392 11.5122 30.5269 11.8379 30.5269 12.1776V18.4737C30.5283 18.6428 30.4962 18.8105 30.4325 18.9671C30.3688 19.1237 30.2747 19.2662 30.1556 19.3863C30.0365 19.5063 29.8949 19.6016 29.7388 19.6667C29.5827 19.7317 29.4153 19.7652 29.2462 19.7652Z" fill="white"/>
<path d="M25.1779 19.7652C25.0088 19.7652 24.8414 19.7317 24.6853 19.6667C24.5292 19.6017 24.3876 19.5064 24.2685 19.3863C24.1494 19.2662 24.0553 19.1237 23.9916 18.9671C23.9279 18.8105 23.8958 18.6428 23.8972 18.4737V9.68073C23.8972 9.34106 24.0322 9.0153 24.2723 8.77511C24.5125 8.53493 24.8383 8.39999 25.1779 8.39999C25.5176 8.39999 25.8434 8.53493 26.0836 8.77511C26.3237 9.0153 26.4587 9.34106 26.4587 9.68073V18.4307C26.4659 18.6033 26.4382 18.7757 26.3771 18.9373C26.316 19.099 26.2228 19.2466 26.1031 19.3713C25.9835 19.4959 25.8398 19.5951 25.6808 19.6628C25.5218 19.7305 25.3508 19.7653 25.1779 19.7652Z" fill="white"/>
<path d="M25.135 33.0676C23.0801 33.0628 21.0822 32.3922 19.4406 31.1562C17.7991 29.9202 16.6024 28.1854 16.0299 26.2119C15.9821 26.0501 15.9668 25.8804 15.9848 25.7126C16.0028 25.5448 16.0537 25.3823 16.1347 25.2343C16.2157 25.0862 16.3252 24.9557 16.4568 24.8501C16.5884 24.7445 16.7396 24.666 16.9017 24.619C17.2299 24.5259 17.5817 24.5664 17.8801 24.7318C18.1786 24.8971 18.3994 25.1739 18.4945 25.5015C18.9469 27.1083 19.9665 28.4965 21.3643 29.4089C22.7621 30.3212 24.4433 30.6958 26.0963 30.4633C27.7492 30.2307 29.2617 29.4067 30.3535 28.1441C31.4453 26.8814 32.0423 25.2658 32.0338 23.5966V15.4924C32.0338 15.1528 32.1687 14.827 32.4089 14.5868C32.6491 14.3466 32.9748 14.2117 33.3145 14.2117C33.6542 14.2117 33.9799 14.3466 34.2201 14.5868C34.4603 14.827 34.5952 15.1528 34.5952 15.4924V23.5966C34.5952 26.1066 33.5989 28.5139 31.825 30.2898C30.0512 32.0656 27.645 33.0647 25.135 33.0676Z" fill="white"/>
<path d="M17.0415 23.0047C16.7008 23.0047 16.374 22.8702 16.1321 22.6303C15.8902 22.3904 15.7528 22.0647 15.75 21.724V19.5715C15.7794 19.2507 15.9276 18.9525 16.1655 18.7353C16.4035 18.5182 16.714 18.3978 17.0361 18.3978C17.3583 18.3978 17.6688 18.5182 17.9067 18.7353C18.1447 18.9525 18.2929 19.2507 18.3222 19.5715V21.724C18.3222 22.0637 18.1873 22.3894 17.9471 22.6296C17.7069 22.8698 17.3812 23.0047 17.0415 23.0047Z" fill="#FED501"/>
</svg>
