<svg
            width="50"
            height="40"
            viewBox="0 0 50 40"
            fill="none"
            xmlns="http://www.w3.org/2000/svg"
          >
            <path
              d="M41.5647 10.9078C43.348 9.07381 44.1401 8.22501 44.0157 7.72274C43.9215 7.34604 43.5593 6.99591 42.9967 6.73632C42.3918 6.45742 41.5478 6.29081 41.1023 6.51297C40.9526 6.58658 40.7027 6.83049 40.1026 7.42573L39.54 7.97751L39.539 7.97654C39.2299 7.61553 38.9003 7.25332 38.5743 6.92733C36.2042 4.55724 33.2123 2.9128 29.9186 2.16543C28.6762 0.647755 26.9726 -0.133424 25.2315 0.0187059C23.7694 0.145481 22.4389 0.921838 21.473 2.20408C18.0199 3.00095 14.8239 4.73109 12.2148 7.21588V7.21397C11.6835 7.01475 10.4798 7.14392 9.70704 7.5001C9.26272 7.70536 9.00072 7.96133 8.92586 8.26196C8.86791 8.49016 8.93794 8.85841 9.79156 9.97886V9.98177C7.14981 13.6136 5.8084 18.0338 6.02211 22.4335C6.24306 26.9442 8.08794 31.1532 11.2199 34.2851C12.3307 35.3947 13.5682 36.3437 14.9157 37.1176C16.8584 38.2345 19.0329 39.07 21.3824 39.5505C26.3194 40.5587 31.2057 39.827 35.3071 37.7962L35.3192 37.7913C35.842 37.5487 36.0654 36.9486 35.8529 36.3642L35.7889 36.1879C34.9232 33.8227 32.2863 26.6219 34.4596 20.3665C35.3699 17.7489 37.6591 15.0515 39.6211 12.9471H39.6221C41.3414 16.0706 42.0815 19.6963 41.6988 23.1808C41.3354 26.483 40.0338 29.4894 37.9137 31.9428V31.9438C37.8496 32.0114 37.811 32.1019 37.811 32.2021C37.811 32.2444 37.8231 32.2854 37.8304 32.3229L37.997 32.7962C38.0513 32.9387 38.1889 33.0401 38.3507 33.0401C38.4594 33.0401 38.5572 32.9942 38.626 32.9205L38.6381 32.9215C44.2005 26.7844 45.4211 17.8944 41.5781 10.9097V10.9088L41.5647 10.9078ZM17.9194 24.4281C17.3471 26.7982 16.5647 30.0376 16.7265 35.0252V35.0233C15.4527 34.2639 14.2635 33.3451 13.2106 32.2922C10.3383 29.4199 8.52235 25.6552 8.09735 21.6938C7.68926 17.8858 8.5779 14.0958 10.6003 10.9832C10.6003 10.9832 10.6003 10.9832 10.6003 10.9822H10.6012C10.6012 10.9822 10.6012 10.9822 10.6003 10.9832C11.2366 11.745 12.0093 12.6264 12.8182 13.5464C14.7995 15.7982 17.0453 18.3518 18.0993 20.1315C18.7102 21.1602 18.4132 22.3905 17.9206 24.4285L17.9194 24.4281ZM37.4814 9.89001C33.2954 13.558 29.4559 15.4379 26.0801 15.4609C23.4818 15.479 20.7966 14.5203 18.1005 12.6115C15.8717 11.0334 14.1922 9.21629 13.1889 8.13085L13.0863 8.02099V8.02002V8.02099C15.1473 6.09763 17.6888 4.75261 20.4585 4.12235C20.4585 4.12139 20.4595 4.12137 20.4595 4.12041V4.12138C20.4585 4.12235 20.4595 4.12235 20.4595 4.12235C20.0985 5.16553 19.9681 6.29927 20.0683 7.44869C20.2494 9.51211 21.1767 11.3859 22.6122 12.5909C23.7351 13.5339 25.097 13.9879 26.4445 13.8707C27.7919 13.7524 29.0536 13.069 29.9966 11.945C31.2015 10.5094 31.7895 8.50272 31.6084 6.43931C31.5758 6.06019 31.5167 5.68348 31.4334 5.31523V5.3162C33.3398 6.19638 35.0748 7.41102 36.5828 8.91904C36.8883 9.22571 37.1914 9.55047 37.4835 9.88975"
              fill="#ED1B2D"
            />
          </svg>
