          <svg
            width="50"
            height="40"
            viewBox="0 0 50 40"
            fill="none"
            xmlns="http://www.w3.org/2000/svg"
          >
            <path
              d="M26.523 28.3925C27.0159 28.3925 26.9526 28.1122 26.9526 27.5876V25.0373C26.9526 24.5083 26.9028 24.3455 27.2058 24.3455C28.2549 24.3455 28.5397 24.246 28.5397 23.3145V13.8277C28.5397 11.2458 26.7175 11.6708 26.202 10.7303C25.4694 9.45512 27.5676 9.45512 26.8034 6.69229C26.6089 6.06376 26.1206 5.67941 25.1755 5.67941C24.2259 5.67941 23.7376 6.06828 23.5431 6.69229C22.7835 9.45512 24.8816 9.45512 24.1491 10.7303C23.6336 11.6753 21.8113 11.2458 21.8113 13.8277V23.31C21.8113 24.2415 22.0916 24.341 23.1452 24.341C23.4391 24.341 23.3939 24.5083 23.3939 25.0328V27.5831C23.3939 28.1076 23.3306 28.388 23.828 28.388H26.523V28.3925Z"
              fill="#0069B7"
            />
            <path
              d="M18.2255 7.82727C17.294 8.81755 15.8199 11.1372 16.783 13.059C18.7364 13.8096 18.5872 6.86412 21.029 6.98169C22.2318 8.09406 20.6672 11.3769 20.1834 12.8148C19.582 14.5964 19.1027 18.3224 17.9587 20.1266C17.0001 21.6324 17.719 26.3577 17.4161 27.981C16.6067 28.7949 14.409 28.2207 13.4776 28.0669C13.4776 26.2039 13.2334 24.7298 12.9349 21.75C12.9033 21.1486 12.2747 11.9466 12.7857 10.8298C13.8393 8.51006 19.582 4.09225 20.3688 3.24667C21.0561 2.49604 23.4934 0 24.4249 0C25.0851 0.452182 24.6962 1.50577 24.547 1.9263C23.6109 4.24599 19.5775 6.53403 18.2255 7.82727Z"
              fill="#0069B7"
            />
            <path
              d="M32.2431 7.82727C33.1429 8.81755 34.6216 11.1372 33.6856 13.059C31.7005 13.8096 31.8542 6.86412 29.4124 6.98169C28.2413 8.09406 29.8058 11.3769 30.2851 12.8148C30.8865 14.5964 31.3704 18.3224 32.5099 20.1266C33.4459 21.6324 32.7495 26.3577 33.0208 27.981C33.8664 28.7949 36.0279 28.2207 36.991 28.0669C36.991 26.2039 37.2035 24.7298 37.502 21.75C37.5608 21.1486 38.1938 11.9466 37.6828 10.8298C36.6338 8.51006 30.8865 4.09225 30.1043 3.24667C29.3853 2.49604 26.9752 0 26.0392 0C25.3518 0.452182 25.7724 1.50577 25.9216 1.9263C26.8576 4.24599 30.8865 6.53403 32.2431 7.82727Z"
              fill="#0069B7"
            />
            <path
              d="M9.8691 4.70722C9.35813 5.19105 8.20959 5.52114 7.42731 6.57021C7.12887 6.00046 7.90663 4.61678 8.84264 3.80285C9.53448 3.22858 10.891 2.29256 11.2799 2.20665C11.5874 2.89849 10.5022 3.95659 9.8691 4.70722Z"
              fill="#0069B7"
            />
            <path
              d="M8.27287 8.47841C7.40016 9.28782 6.46867 9.62243 5.25682 11.1011C4.74585 9.31947 4.86794 7.75492 5.1076 6.69681C5.53265 5.31314 6.22449 3.77572 7.40016 3.29189C7.16051 4.07416 6.76259 5.1594 6.67667 6.63803C6.16571 8.65928 5.86274 8.71807 5.98483 8.98938C6.1024 8.98938 6.76711 7.93579 7.58103 7.12187C8.5487 6.15872 9.75151 5.94619 10.5338 5.37644C10.4117 5.7608 9.71986 6.99525 8.27287 8.47841Z"
              fill="#0069B7"
            />
            <path
              d="M4.02687 16.8257C2.8512 14.714 2.72911 13.1766 2.63867 11.3995C2.70198 10.165 3.30338 7.30274 4.20774 6.88221C3.93643 9.47321 4.6328 9.71287 4.35696 11.8517C4.35696 11.9738 4.054 14.203 4.054 14.3251C4.41575 14.2663 4.08565 12.2722 8.21408 9.40991C7.31423 10.979 7.73476 11.4583 6.10239 13.5428C4.20322 15.4058 3.93191 17.2417 4.02687 16.8257Z"
              fill="#0069B7"
            />
            <path
              d="M5.6819 18.8153C4.80467 20.0814 4.95841 20.7144 4.74589 21.3113C2.66133 20.1085 0.314502 15.3199 1.18721 12.9369C1.72983 14.7456 2.48498 15.1345 3.02759 16.6448C3.96361 18.9057 3.81439 19.5976 4.41579 20.1085C4.2937 18.9329 4.6871 17.5447 5.0805 16.5227C5.65477 15.65 6.10243 14.5015 6.52748 14.1126C6.97514 15.7721 6.64505 17.1241 5.6819 18.8153Z"
              fill="#0069B7"
            />
            <path
              d="M7.54946 22.9121C7.54946 24.7479 7.21484 25.5664 7.06562 26.9184C3.47982 25.7472 1.60779 21.646 1.60779 19.6292C2.69302 22.0981 4.28923 22.0665 6.37378 25.5664C6.55466 24.237 6.00752 25.2318 5.94873 22.7312C6.00752 20.1085 6.55014 20.0181 6.64057 18.3902C7.3098 19.1137 7.54946 22.0077 7.54946 22.9121Z"
              fill="#0069B7"
            />
            <path
              d="M10.5293 28.1257C10.8051 29.4823 10.9227 31.083 11.1352 32.2587C9.08683 31.5035 8.57134 32.0778 6.13408 30.5404C5.01719 29.9344 3.02759 27.4067 3.1542 25.598C5.56433 28.284 5.98486 27.981 7.16053 28.9758C8.24577 29.8531 9.11848 31.1463 9.90528 30.9699C9.96406 30.2465 8.12368 28.6774 8.36334 24.1601C8.84265 24.6575 10.1675 26.7059 10.5293 28.1257Z"
              fill="#0069B7"
            />
            <path
              d="M14.5989 31.5035C15.232 32.4079 15.0828 32.7968 16.7106 34.6643C16.3172 34.8451 13.9975 35.4511 12.4556 35.5098C11.4337 35.5098 7.81621 34.5467 6.6134 32.0733C8.69344 33.1856 8.72509 32.9188 11.4924 33.5202C13.482 33.9724 14.8974 34.6055 15.44 34.5467C15.3179 34.2754 13.785 33.6423 12.7269 32.3174C11.6688 30.9021 11.913 29.3059 10.977 28.1257C11.6191 27.9448 14.088 30.8388 14.5989 31.5035Z"
              fill="#0069B7"
            />
            <path
              d="M40.4276 4.70722C40.9114 5.19105 42.0871 5.52114 42.8377 6.57021C43.1678 6.00046 42.3584 4.61678 41.4224 3.80285C40.7622 3.22858 39.4056 2.29256 38.9806 2.20665C38.6776 2.89849 39.7629 3.95659 40.4276 4.70722Z"
              fill="#0069B7"
            />
            <path
              d="M42.0238 8.47841C42.8693 9.28782 43.8054 9.62243 45.0037 11.1011C45.5191 9.31947 45.3971 7.75492 45.1619 6.69681C44.7685 5.31314 44.045 3.77572 42.8694 3.29189C43.1452 4.07416 43.5024 5.1594 43.5928 6.63803C44.1038 8.65928 44.4068 8.71807 44.2847 8.98938C44.1626 8.98938 43.5024 7.93579 42.684 7.12187C41.7525 6.15872 40.5451 5.94619 39.7312 5.37644C39.8578 5.7608 40.5813 6.99525 42.0238 8.47841Z"
              fill="#0069B7"
            />
            <path
              d="M46.2471 16.8257C47.4544 14.714 47.5403 13.1766 47.6353 11.3995C47.572 10.165 46.9706 7.30274 46.0979 6.88221C46.3375 9.47321 45.6457 9.71287 45.9487 11.8517C45.9487 11.9738 46.22 14.203 46.22 14.3251C45.8899 14.2663 46.1883 12.2722 42.0916 9.40991C42.9688 10.979 42.5437 11.4583 44.1716 13.5428C46.0934 15.4058 46.333 17.2417 46.2471 16.8257Z"
              fill="#0069B7"
            />
            <path
              d="M44.6148 18.8153C45.4649 20.0814 45.3111 20.7144 45.5191 21.3113C47.5992 20.1085 49.9776 15.3199 49.0733 12.9369C48.5623 14.7456 47.78 15.1345 47.2691 16.6448C46.3059 18.9057 46.4506 19.5976 45.8809 20.1085C45.9984 18.9329 45.5779 17.5447 45.189 16.5227C44.6464 15.65 44.1671 14.5015 43.7421 14.1126C43.3215 15.7721 43.62 17.1241 44.6148 18.8153Z"
              fill="#0069B7"
            />
            <path
              d="M42.7201 22.9121C42.7201 24.7479 43.0773 25.5664 43.2311 26.9184C46.7897 25.7427 48.6889 21.6459 48.6889 19.6247C47.572 22.0936 46.0029 22.062 43.8958 25.5618C43.7149 24.2324 44.253 25.2272 44.3163 22.7267C44.253 20.104 43.7149 20.0136 43.6199 18.3857C42.9597 19.1137 42.7201 22.0077 42.7201 22.9121Z"
              fill="#0069B7"
            />
            <path
              d="M39.7358 28.1257C39.4645 29.4823 39.374 31.083 39.1615 32.2587C41.1828 31.5035 41.6937 32.0778 44.131 30.5404C45.2479 29.9344 47.2691 27.4067 47.147 25.598C44.7369 28.284 44.2847 27.981 43.1407 28.9758C42.0555 29.8531 41.1511 31.1463 40.3643 30.9699C40.3055 30.2465 42.1414 28.6774 41.9334 24.1601C41.4224 24.6575 40.0975 26.7059 39.7358 28.1257Z"
              fill="#0069B7"
            />
            <path
              d="M35.6661 31.5035C35.0602 32.4079 35.2139 32.7968 33.559 34.6643C33.9795 34.8451 36.2721 35.4511 37.8411 35.5098C38.8359 35.5098 42.4534 34.5467 43.6562 32.0733C41.5807 33.1856 41.549 32.9188 38.7771 33.5202C36.7875 33.9724 35.3993 34.6055 34.8296 34.5467C34.9472 34.2754 36.5117 33.6423 37.5427 32.3174C38.5963 30.9021 38.3566 29.3059 39.3152 28.1257C38.6505 27.9448 36.1816 30.8388 35.6661 31.5035Z"
              fill="#0069B7"
            />
            <path
              d="M19.9935 40L19.3921 39.697C19.3921 39.697 23.2221 35.026 29.7923 35.3877C36.3625 35.7495 35.9103 37.2869 39.4328 37.0427C39.8262 37.0111 39.1344 37.5266 39.1344 37.5266C39.1344 37.5266 35.6978 38.8469 31.4473 37.4045C27.2284 35.962 24.4837 35.0848 19.9935 40Z"
              fill="#0069B7"
            />
            <path
              d="M30.3891 40L30.9951 39.697C30.9951 39.697 27.1967 35.026 20.6265 35.3877C14.0247 35.7495 14.4769 37.2869 10.9544 37.0427C10.561 37.0111 11.2528 37.5266 11.2528 37.5266C11.2528 37.5266 14.6849 38.8469 18.9399 37.4045C23.1904 35.962 25.9352 35.0848 30.3891 40Z"
              fill="#0069B7"
            />
          </svg>