<svg
            width="50"
            height="40"
            viewBox="0 0 50 40"
            fill="none"
            xmlns="http://www.w3.org/2000/svg"
          >
            <path
              d="M25.0882 0C16.4257 0 9.29199 7.00638 9.29199 15.7962C9.29199 24.4586 16.2984 31.5924 25.0882 31.5924C33.7506 31.5924 40.8844 24.586 40.8844 15.7962C40.8844 7.00638 33.7506 0 25.0882 0ZM37.3175 7.00638C36.5532 7.51593 35.6614 8.02549 34.7697 8.53504C34.2602 7.51593 33.6232 6.49682 32.8589 5.6051C33.4958 5.22294 34.1328 4.71338 34.6423 4.33121C35.7888 4.96816 36.6806 5.98727 37.3175 7.00638ZM30.6933 1.78344C31.9672 2.293 33.1137 2.92994 34.2602 3.82166C33.7506 4.33121 33.1137 4.71338 32.4767 5.09555C31.7124 4.20383 30.8207 3.43949 29.9289 2.67516C30.1837 2.293 30.4385 2.03822 30.6933 1.78344ZM31.9672 5.35032C31.0754 5.85988 30.1837 6.11466 29.292 6.49682C28.9098 5.6051 28.5277 4.71338 28.0181 3.94905C28.5277 3.69427 29.0372 3.43949 29.4194 3.05733C30.3111 3.69427 31.2028 4.4586 31.9672 5.35032ZM30.0563 1.52866C29.8016 1.78344 29.5468 2.03822 29.4194 2.293C28.5277 1.78344 27.7633 1.27389 26.7442 0.891721C27.8907 0.891721 29.0372 1.1465 30.0563 1.52866ZM28.9098 2.67516C28.5277 2.92994 28.1455 3.18472 27.7633 3.3121C27.2538 2.54777 26.7442 1.91083 26.2347 1.1465C27.1264 1.52866 28.0181 2.03822 28.9098 2.67516ZM25.343 1.27389C25.9799 1.91083 26.4895 2.67516 26.999 3.56688C26.4895 3.69427 25.9799 3.82166 25.343 3.82166V1.27389ZM25.343 4.4586C25.9799 4.4586 26.7442 4.33121 27.3812 4.07644C27.8907 4.84077 28.2729 5.73249 28.6551 6.62421C27.636 6.87899 26.4895 7.00638 25.343 7.13376V4.4586ZM24.706 1.27389V3.82166C24.1965 3.82166 23.6869 3.69427 23.05 3.56688C23.6869 2.80255 24.1965 2.03822 24.706 1.27389ZM22.5404 3.3121C22.1582 3.18472 21.6487 2.92994 21.3939 2.67516C22.2856 2.16561 23.1774 1.65605 24.0691 1.27389C23.4321 1.91083 22.9226 2.54777 22.5404 3.3121ZM23.4321 0.764332C22.5404 1.1465 21.6487 1.65605 20.757 2.16561C20.5022 1.91083 20.2474 1.65605 20.12 1.40128C21.1391 1.1465 22.2856 0.891721 23.4321 0.764332ZM34.2602 27.7707C32.2219 26.6242 32.0946 24.9682 32.2219 24.4586C32.3493 23.8217 32.7315 24.0765 32.9863 24.0765C34.3876 24.0765 35.7888 23.6943 37.5723 21.7835C39.6105 19.7452 40.2474 15.1593 37.0627 12.2293C33.7506 9.04459 30.1837 9.55415 27.8907 12.4841C27.3812 13.121 26.2347 13.5032 25.343 13.5032C23.8143 13.5032 24.8334 14.6497 24.8334 14.9045C24.8334 15.1593 24.5786 15.2866 24.4512 15.2866C23.9417 15.1593 24.1965 15.9236 24.1965 16.051C24.1965 16.1784 23.9417 16.4331 23.9417 16.4331C23.3047 16.4331 23.4321 16.9427 23.5595 17.1975C23.5595 17.3249 23.5595 17.5796 23.3047 17.707C23.05 17.8344 22.9226 18.344 22.9226 18.7261C22.9226 19.3631 23.5595 19.8726 24.5786 20.637C25.5977 21.4013 25.7251 22.1656 25.7251 22.6752C25.7251 23.1847 25.8525 24.0765 25.9799 24.586C26.2347 25.223 26.2347 26.4968 24.8334 26.4968C23.05 26.6242 19.9926 27.8981 19.7379 28.0255C18.7187 28.4077 17.4449 28.5351 16.4258 28.2803C15.9162 27.8981 15.4066 27.516 14.8971 27.0064C14.6423 26.3695 15.0245 25.6051 15.4066 25.0956C16.0436 25.7325 16.8079 25.6051 17.3175 25.6051C17.827 25.6051 20.12 25.223 20.5022 25.0956C20.8844 24.9682 21.0117 24.9682 21.1391 25.0956C22.0309 25.4777 23.3047 25.4777 23.8143 23.8217C24.3238 22.0382 23.1774 22.5478 22.9226 22.6752C22.7952 22.8026 22.5404 22.6752 22.6678 22.5478C22.9226 22.1656 22.5404 22.1656 22.413 22.1656C21.9035 22.1656 21.2665 22.6752 21.1391 22.8026C20.8844 22.93 20.757 22.93 20.6296 22.93C19.9926 22.5478 18.0818 23.0573 17.4449 22.0382C17.4449 21.7835 16.9353 17.5796 16.6805 16.8153C16.6805 16.6879 16.5531 16.4331 16.8079 16.1784C17.3175 15.414 18.5914 16.1784 19.3557 16.1784C20.2474 16.1784 20.3748 15.7962 20.6296 15.5414C20.8844 15.2866 21.0117 15.414 21.1391 15.2866C21.2665 15.1593 21.1391 15.0319 21.1391 14.9045C21.1391 14.7771 21.2665 14.9045 21.3939 14.7771C21.5213 14.6497 21.3939 14.3949 21.3939 14.2675C21.6487 13.8854 22.1582 14.1401 21.9035 13.3758C21.7761 12.8663 22.0309 12.3567 22.2856 12.1019C22.6678 11.5924 24.3239 9.29937 21.5213 6.87899C18.8461 4.58599 16.0436 4.84077 14.2601 6.7516C12.4767 8.66243 13.3684 11.465 13.4958 12.2293C13.6232 12.9936 13.1137 13.6306 12.4767 13.8854C11.9672 14.1401 10.8207 14.9045 10.0563 15.5414C10.1837 9.42676 13.878 4.07644 19.4831 1.91083C19.7379 2.16561 19.9926 2.54777 20.2474 2.80255C19.6105 3.31211 18.2092 4.4586 18.2092 4.4586C18.2092 4.4586 18.3366 4.4586 18.5914 4.58599C18.7187 4.58599 18.9735 4.71338 18.9735 4.71338C18.9735 4.71338 20.12 3.69427 20.757 3.3121C21.1391 3.69427 21.6487 3.94905 22.1582 4.20383C21.9035 4.71338 21.1391 5.98727 21.1391 5.98727C21.1391 5.98727 21.2665 6.11466 21.3939 6.11466C21.5213 6.24204 21.6487 6.24204 21.6487 6.24204C21.6487 6.24204 22.413 4.84077 22.6678 4.33121C23.3047 4.58599 23.9417 4.71338 24.5786 4.71338V7.26115C24.1965 7.26115 23.3047 7.26115 22.9226 7.13376H22.6678L22.7952 7.38854C22.9226 7.51593 22.9226 7.64332 23.05 7.77071C23.3047 7.77071 24.1965 7.77071 24.5786 7.77071V12.4841H25.2156V11.3376C26.2347 11.3376 26.999 11.2102 27.8907 11.0828L28.7824 10.3185H28.2729C27.2538 10.4459 26.3621 10.5733 25.5977 10.5733C25.5977 10.5733 25.343 10.5733 25.2156 10.5733V7.64332C26.3621 7.64332 27.636 7.51593 28.7824 7.13376C29.0372 7.8981 29.6742 9.80893 29.6742 9.80893L30.3111 9.55415C30.3111 9.55415 29.6742 7.64332 29.4194 6.87899C30.4385 6.62421 31.3302 6.11466 32.2219 5.73249C32.9863 6.62421 33.6232 7.64332 34.1328 8.66243C33.6232 8.91721 32.8589 9.17198 32.8589 9.17198C33.4958 9.29937 34.0054 9.42676 34.0054 9.42676C34.0054 9.42676 34.2602 9.29937 34.3876 9.29937C34.3876 9.42676 34.5149 9.68154 34.5149 9.68154L35.4067 10.0637L35.2793 9.80893C35.2793 9.80893 35.0245 9.17198 34.8971 9.04459C35.7888 8.66243 36.6805 8.15287 37.5723 7.51593C39.2283 9.93632 39.9927 12.8663 39.9927 15.7962C40.2474 20.637 37.827 24.9682 34.2602 27.7707Z"
              fill="#00AEEF"
            />
            <path
              d="M7.89071 4.20384L7.63593 4.45861C6.74421 5.22294 4.57861 7.38855 4.96078 9.80894V9.93633L5.08816 10.4459L5.34294 10.1911C6.61682 9.0446 7.63594 7.00639 8.0181 4.71339L8.14549 4.07645L7.89071 4.20384Z"
              fill="#00AEEF"
            />
            <path
              d="M3.55946 8.2803L3.43206 8.53507C3.30467 8.91724 3.0499 9.80896 2.92251 10.8281C2.66774 12.3567 2.79512 14.6497 4.069 16.3058L4.1964 16.5606L4.32379 16.8153L4.57856 15.7962C4.83334 14.0128 4.45117 10.3185 3.81423 8.66246L3.55946 8.15291V8.2803Z"
              fill="#00AEEF"
            />
            <path
              d="M2.03083 14.6497V14.9045C1.90344 16.4332 2.03083 20.3822 5.21555 22.5478L5.59772 22.8026V22.293C5.59772 20.7644 3.81428 16.3058 2.54039 14.7771L2.15822 14.2675L2.03083 14.6497Z"
              fill="#00AEEF"
            />
            <path
              d="M2.54041 21.6561V21.9108C3.04996 24.2038 5.08818 27.7707 8.40028 28.9172L8.90984 29.0446L8.78245 28.535C8.14551 26.879 4.96079 22.9299 2.92258 21.6561L2.54041 21.4013V21.6561Z"
              fill="#00AEEF"
            />
            <path
              d="M9.29195 7.64335L8.90978 7.77074C6.4894 9.2994 5.3429 11.0828 5.3429 13.3758V13.8854L5.72507 13.6306C6.99895 12.4841 8.78239 9.68157 9.16455 8.1529L9.29195 7.51596V7.64335Z"
              fill="#00AEEF"
            />
            <path
              d="M7.76327 12.4841L7.63588 12.7389C6.99894 13.3758 4.96072 15.5414 5.08811 18.2166C5.08811 18.5988 5.2155 19.1083 5.34289 19.4905L5.47028 19.8727L5.72506 19.4905C6.74416 18.0892 8.01805 14.5223 7.89066 12.8663V12.3567L7.76327 12.4841Z"
              fill="#00AEEF"
            />
            <path
              d="M7.89067 17.1975L7.76328 17.4523C6.74417 18.9809 6.23462 20.5096 6.23462 22.0383C6.23462 23.0574 6.61678 24.0765 7.25372 25.0956L7.50851 25.4778L7.63589 25.0956C8.01806 24.2039 8.40022 21.5287 8.40022 19.3631C8.40022 18.5988 8.27284 17.9618 8.14545 17.5797L8.01806 17.0701L7.89067 17.1975Z"
              fill="#00AEEF"
            />
            <path
              d="M9.03709 22.1656L8.90971 22.4204C8.65493 23.4395 8.40015 24.3312 8.52754 25.3504C8.52754 27.3886 9.54665 29.0446 11.3301 30.1911L11.5849 30.3185L11.7123 29.9363V29.5542C11.7123 27.8981 10.4384 23.5669 9.41926 22.293L9.16448 21.9109L9.03709 22.1656Z"
              fill="#00AEEF"
            />
            <path
              d="M5.59772 28.7898L5.72511 29.0446C6.999 31.2102 9.29199 34.1402 13.4958 33.3758H13.878L13.6232 33.121C12.8589 31.9745 7.76332 29.0446 5.97988 28.7898L5.47034 28.6624L5.59772 28.7898Z"
              fill="#00AEEF"
            />
            <path
              d="M11.8398 34.3949L11.2029 34.5223L11.8398 34.7771C14.515 35.9236 17.8271 36.1783 19.8653 35.5414C20.6296 35.2866 21.0118 34.9045 21.5214 34.3949C24.9609 34.7771 28.1456 37.5796 30.0564 39.8726L30.1838 40H30.3112C30.566 39.8726 30.8207 39.6178 30.9481 39.4904L31.0755 39.3631L30.9481 39.2357C29.0373 36.6879 25.98 35.1592 25.8526 35.0318C23.05 33.758 18.2093 32.7388 11.8398 34.3949Z"
              fill="#00AEEF"
            />
            <path
              d="M11.9672 27.2612V27.5159C12.3494 30.0637 13.3685 33.3758 17.6997 32.9937H17.9545L17.8271 32.7389C17.5723 31.5924 13.6233 28.2803 12.222 27.3886L11.8398 27.1338L11.9672 27.2612Z"
              fill="#00AEEF"
            />
            <path
              d="M42.0309 3.94902L42.1583 4.58596C42.5404 6.87896 43.5595 8.91718 44.8334 10.0637L45.0882 10.3185L45.2156 9.8089V9.68151C45.5978 7.26113 43.4322 5.09552 42.5404 4.33119L42.2857 4.07641L42.0309 3.94902Z"
              fill="#00AEEF"
            />
            <path
              d="M46.4896 8.02547L46.2348 8.53502C45.5978 10.1911 45.3431 13.8853 45.4704 15.6688L45.7252 16.6879L45.8526 16.5605L45.98 16.3057C47.3813 14.6497 47.3813 12.4841 47.1265 10.828C46.9991 9.68152 46.7443 8.91719 46.617 8.53502L46.4896 8.28024V8.02547Z"
              fill="#00AEEF"
            />
            <path
              d="M48.1454 14.3949L47.7633 14.9045C46.4894 16.5605 44.7059 20.8917 44.7059 22.4204V22.9299L45.0881 22.6752C48.2728 20.6369 48.4002 16.6879 48.2728 15.0318V14.7771L48.1454 14.3949Z"
              fill="#00AEEF"
            />
            <path
              d="M47.636 21.4013L47.1264 21.6561C45.0882 22.9299 41.9035 26.879 41.2665 28.535L41.1392 29.0446L41.6487 28.9172C44.9608 27.8981 47.1264 24.2038 47.5086 21.9108V21.6561L47.636 21.4013Z"
              fill="#00AEEF"
            />
            <path
              d="M40.8843 7.38852L41.0117 8.02546C41.5212 9.68151 43.0499 12.4841 44.4512 13.6306L44.8333 13.8853V13.3758C44.9607 11.0828 43.8142 9.29935 41.3938 7.77068L41.1391 7.6433L40.8843 7.38852Z"
              fill="#00AEEF"
            />
            <path
              d="M42.2856 12.3567V12.8663C42.1582 14.5223 43.5595 18.2166 44.4512 19.4905L44.706 19.8727L44.8334 19.4905C44.9607 18.9809 45.0881 18.5988 45.0881 18.2166C45.2155 15.5414 43.1773 13.3758 42.5404 12.7389L42.413 12.6115L42.2856 12.3567Z"
              fill="#00AEEF"
            />
            <path
              d="M42.1583 16.9427L42.0309 17.4522C41.9035 17.8344 41.7761 18.4713 41.7761 19.2357C41.7761 21.4013 42.0309 24.0764 42.5405 24.9682L42.6678 25.3503L42.9226 24.9682C43.5596 24.0764 43.9417 23.0573 43.9417 21.9108C43.9417 20.5096 43.4322 18.8535 42.4131 17.3248L42.2857 17.0701L42.1583 16.9427Z"
              fill="#00AEEF"
            />
            <path
              d="M41.0116 21.9109L40.7569 22.293C39.7378 23.5669 38.4639 27.8981 38.4639 29.5542C38.4639 29.5542 38.4639 29.809 38.4639 29.9363L38.5913 30.3185L38.846 30.1911C40.6295 29.0446 41.5212 27.3886 41.6486 25.3504C41.6486 24.4586 41.5212 23.4395 41.2664 22.4204L41.139 22.1656L41.0116 21.9109Z"
              fill="#00AEEF"
            />
            <path
              d="M44.706 28.5351L44.1964 28.6625C42.413 28.9173 37.3174 31.8472 36.5531 32.9937L36.2983 33.2485H36.6805C40.8843 34.0128 43.1773 31.0829 44.4512 28.9173L44.5786 28.6625L44.706 28.5351Z"
              fill="#00AEEF"
            />
            <path
              d="M24.4512 35.0318C24.3238 35.0318 21.2665 36.6879 19.3557 39.2357L19.2283 39.3631L19.3557 39.4904C19.483 39.6178 19.8652 39.8726 19.9926 40H20.12L20.2474 39.8726C22.1582 37.5796 25.3429 34.6497 28.7824 34.3949C29.292 34.9045 29.8015 35.2866 30.4385 35.5414C32.3493 36.1783 35.7888 35.9236 38.464 34.7771L39.1009 34.5223L38.464 34.3949C31.9671 32.7388 27.1264 33.758 24.4512 35.0318Z"
              fill="#00AEEF"
            />
            <path
              d="M38.2091 27.0064L37.827 27.2612C36.4257 28.1529 32.604 31.465 32.2219 32.6115L32.0945 32.8663H32.3493C36.5531 33.2485 37.5722 29.9363 38.0818 27.3886V27.1338L38.2091 27.0064Z"
              fill="#00AEEF"
            />
          </svg>